HIERARCHY
ROOT SpineBase
{
  OFFSET 0.000000 0.000000 0.000000
  CHANNELS 6 Xposition Yposition Zposition Zrotation Xrotation Yrotation
  JOINT SpineMid
  {
    OFFSET 0.000000 30.534485 0.000000
    CHANNELS 3 Zrotation Xrotation Yrotation
    JOINT SpineShoulder
    {
      OFFSET 0.500342 22.607201 -0.909415
      CHANNELS 3 Zrotation Xrotation Yrotation
      JOINT Neck
      {
        OFFSET 0.668428 7.453241 -0.725806
        CHANNELS 3 Zrotation Xrotation Yrotation
        JOINT Head
        {
          OFFSET 3.722786 10.080814 5.854143
          CHANNELS 3 Zrotation Xrotation Yrotation
          End Site
          {
            OFFSET 0 0 0
          }
        }
      }
      JOINT ShoulderLeft
      {
        OFFSET 1.204893 -5.030936 -15.554810
        CHANNELS 3 Zrotation Xrotation Yrotation
        JOINT ElbowLeft
        {
          OFFSET 5.723524 -24.822349 -5.881400
          CHANNELS 3 Zrotation Xrotation Yrotation
          JOINT WristLeft
          {
            OFFSET 15.779705 -8.805104 15.640520
            CHANNELS 3 Zrotation Xrotation Yrotation
            JOINT HandLeft
            {
              OFFSET 5.134588 0.955531 5.027189
              CHANNELS 3 Zrotation Xrotation Yrotation
              JOINT HandTipLeft
              {
                OFFSET 6.215360 -0.447987 3.044774
                CHANNELS 3 Zrotation Xrotation Yrotation
                End Site
                {
                  OFFSET 0 0 0
                }
              }
              JOINT ThumbLeft
              {
                OFFSET -0.579693 5.745795 -2.086615
                CHANNELS 3 Zrotation Xrotation Yrotation
                End Site
                {
                  OFFSET 0 0 0
                }
              }
            }
          }
        }
      }
      JOINT ShoulderRight
      {
        OFFSET 12.965016 2.021410 15.859190
        CHANNELS 3 Zrotation Xrotation Yrotation
        JOINT ElbowRight
        {
          OFFSET 2.299121 -26.391288 -0.695250
          CHANNELS 3 Zrotation Xrotation Yrotation
          JOINT WristRight
          {
            OFFSET 17.880810 -12.694119 -12.790775
            CHANNELS 3 Zrotation Xrotation Yrotation
            JOINT HandRight
            {
              OFFSET 2.422858 -0.038268 1.367194
              CHANNELS 3 Zrotation Xrotation Yrotation
              JOINT HandTipRight
              {
                OFFSET 5.014676 -2.765601 0.536813
                CHANNELS 3 Zrotation Xrotation Yrotation
                End Site
                {
                  OFFSET 0 0 0
                }
              }
              JOINT ThumbRight
              {
                OFFSET 4.486080 3.728618 -0.252010
                CHANNELS 3 Zrotation Xrotation Yrotation
                End Site
                {
                  OFFSET 0 0 0
                }
              }
            }
          }
        }
      }
    }
  }
  JOINT HipLeft
  {
    OFFSET -1.535162 0.600122 -9.273681
    CHANNELS 3 Zrotation Xrotation Yrotation
    JOINT KneeLeft
    {
      OFFSET -5.577831 -37.836901 -1.149182
      CHANNELS 3 Zrotation Xrotation Yrotation
      JOINT AnkleLeft
      {
        OFFSET -10.555709 -35.480988 -0.892828
        CHANNELS 3 Zrotation Xrotation Yrotation
        JOINT FootLeft
        {
          OFFSET 5.007207 -6.999115 -4.066511
          CHANNELS 3 Zrotation Xrotation Yrotation
          End Site
          {
            OFFSET 0 0 0
          }
        }
      }
    }
  }
  JOINT HipRight
  {
    OFFSET 2.819266 1.055476 1.573868
    CHANNELS 3 Zrotation Xrotation Yrotation
    JOINT KneeRight
    {
      OFFSET -8.886429 -36.957262 0.756577
      CHANNELS 3 Zrotation Xrotation Yrotation
      JOINT AnkleRight
      {
        OFFSET 9.479780 -28.898243 -6.616850
        CHANNELS 3 Zrotation Xrotation Yrotation
        JOINT FootRight
        {
          OFFSET 9.824201 -3.861646 -7.137191
          CHANNELS 3 Zrotation Xrotation Yrotation
          End Site
          {
            OFFSET 0 0 0
          }
        }
      }
    }
  }
}
MOTION
Frames: 9
Frame Time: 0.033333
-56.410554 80.373113 343.169632 -0.000000 0.000000 -68.128462 -0.000000 0.000000 68.128462 -0.000000 0.000000 0.000000 -0.000000 0.000000 0.000000 0.000000 0.000000 0.000000 -0.000000 0.000000 0.000000 -0.000000 0.000000 0.000000 -0.000000 0.000000 0.000000 -0.000000 0.000000 0.000000 0.000000 0.000000 0.000000 0.000000 0.000000 0.000000 -0.000000 0.000000 0.000000 -0.000000 0.000000 0.000000 -0.000000 0.000000 0.000000 -0.000000 0.000000 0.000000 0.000000 0.000000 0.000000 0.000000 0.000000 0.000000 -0.000000 0.000000 68.128462 -0.000000 0.000000 0.000000 -0.000000 0.000000 0.000000 0.000000 0.000000 0.000000 -0.000000 0.000000 68.128462 -0.000000 0.000000 0.000000 -0.000000 0.000000 0.000000 0.000000 0.000000 0.000000
-56.319747 80.131545 343.234442 -0.008903 -0.074518 -67.839058 -0.065655 0.036355 67.839073 -0.000000 0.000000 0.000000 -0.000000 0.000000 0.000000 0.000000 0.000000 0.000000 -0.000000 0.000000 0.000000 -0.000000 0.000000 0.000000 -0.000000 0.000000 0.000000 0.087858 0.047570 1.247286 0.000000 0.000000 0.000000 0.000000 0.000000 0.000000 -0.000000 0.000000 0.000000 -0.719763 -0.922498 -0.589992 2.727165 0.073367 7.377916 -0.164253 1.888454 -4.802409 0.000000 0.000000 0.000000 0.000000 0.000000 0.000000 -0.065655 0.036355 67.839073 -0.000000 0.000000 0.000000 -0.000000 0.000000 0.000000 0.000000 0.000000 0.000000 -0.065655 0.036355 67.839073 -0.000000 0.000000 0.000000 -0.000000 0.000000 0.000000 0.000000 0.000000 0.000000
-56.242933 79.932253 343.288281 -0.029127 -0.138159 -67.625601 -0.116670 0.079525 67.625647 0.974198 0.094589 0.085656 -0.974340 -0.093119 -0.087252 0.000000 0.000000 0.000000 -0.974340 -0.093119 -0.087252 -0.000000 0.000000 0.000000 -0.000000 0.000000 0.000000 0.157399 0.084274 2.207566 0.000000 0.000000 0.000000 0.000000 0.000000 0.000000 -0.974340 -0.093119 -0.087252 -1.310994 -1.642021 -1.042679 5.039858 0.243670 12.078453 0.150115 3.259361 -7.621716 0.000000 0.000000 0.000000 0.000000 0.000000 0.000000 -0.116670 0.079525 67.625647 -0.000000 0.000000 0.000000 -0.000000 0.000000 0.000000 0.000000 0.000000 0.000000 -0.116670 0.079525 67.625647 -0.000000 0.000000 0.000000 -0.000000 0.000000 0.000000 0.000000 0.000000 0.000000
-56.180111 79.775238 343.331150 -0.060598 -0.191220 -67.492093 -0.153457 0.129183 67.492165 1.381874 0.141299 0.120344 -1.382172 -0.138356 -0.123717 0.000000 0.000000 0.000000 -1.382172 -0.138356 -0.123717 -0.000000 0.000000 0.000000 -0.000000 0.000000 0.000000 0.205987 0.107127 2.832852 0.000000 0.000000 0.000000 0.000000 0.000000 0.000000 -1.382172 -0.138356 -0.123717 -1.771891 -2.166345 -1.355107 6.980527 0.333209 14.603906 0.563651 4.111629 -9.128051 0.000000 0.000000 0.000000 0.000000 0.000000 0.000000 -0.153457 0.129183 67.492165 -0.000000 0.000000 0.000000 -0.000000 0.000000 0.000000 0.000000 0.000000 0.000000 -0.153457 0.129183 67.492165 -0.000000 0.000000 0.000000 -0.000000 0.000000 0.000000 0.000000 0.000000 0.000000
-56.131281 79.660498 343.363049 -0.103304 -0.233938 -67.440769 -0.176407 0.185147 67.440843 1.737687 0.187554 0.149794 -1.738180 -0.182924 -0.155413 0.000000 0.000000 0.000000 -1.738180 -0.182924 -0.155413 -0.000000 0.000000 0.000000 -0.000000 0.000000 0.000000 0.231849 0.114085 3.091730 0.000000 0.000000 0.000000 0.000000 0.000000 0.000000 -1.738180 -0.182924 -0.155413 -2.101070 -2.500786 -1.524522 8.610155 0.226117 15.308426 0.788192 4.480037 -9.795418 0.000000 0.000000 0.000000 0.000000 0.000000 0.000000 -0.176407 0.185147 67.440843 -0.000000 0.000000 0.000000 -0.000000 0.000000 0.000000 0.000000 0.000000 0.000000 -0.176407 0.185147 67.440843 -0.000000 0.000000 0.000000 -0.000000 0.000000 0.000000 0.000000 0.000000 0.000000
-56.096444 79.588035 343.383979 -0.157296 -0.266491 -67.471991 -0.185891 0.247395 67.472026 2.042315 0.233324 0.174133 -1.340739 -0.489448 -0.491266 0.000000 0.000000 0.000000 -2.043031 -0.226969 -0.182339 -0.000000 0.000000 0.000000 -0.000000 0.000000 0.000000 0.234174 0.104367 2.972791 0.000000 0.000000 0.000000 0.000000 0.000000 0.000000 -2.043031 -0.226969 -0.182339 -2.297319 -2.647875 -1.548098 9.973424 -0.158608 14.383847 0.627615 4.413178 -9.858620 0.000000 0.000000 0.000000 0.000000 0.000000 0.000000 -0.185891 0.247395 67.472026 -0.000000 0.000000 0.000000 -0.000000 0.000000 0.000000 0.000000 0.000000 0.000000 -0.185891 0.247395 67.472026 -0.000000 0.000000 0.000000 -0.000000 0.000000 0.000000 0.000000 0.000000 0.000000
-56.060042 79.545530 343.403762 -0.193150 -0.306648 -67.554220 -0.209670 0.295597 67.554244 2.348928 0.294134 0.196775 -1.565465 -0.715884 -0.501891 0.000000 0.000000 0.000000 -2.349953 -0.285821 -0.208668 1.130687 -1.387406 -0.446794 -2.473182 2.455434 1.509645 1.719458 -1.071195 2.352675 0.000000 0.000000 0.000000 0.000000 0.000000 0.000000 -1.346275 0.143656 -0.196101 -4.035029 -3.366648 -1.274435 14.372877 -1.805587 10.991642 -2.858342 5.504248 -8.994124 0.000000 0.000000 0.000000 0.000000 0.000000 0.000000 -0.209670 0.295597 67.554244 -0.000000 0.000000 0.000000 -0.462124 -0.666593 -0.212412 0.000000 0.000000 0.000000 -0.209670 0.295597 67.554244 -0.000000 0.000000 0.000000 -0.000000 0.000000 0.000000 0.000000 0.000000 0.000000
-56.033929 79.564000 343.426902 -0.232234 -0.355253 -67.766373 -0.240967 0.349388 67.766388 2.567181 0.342960 0.212083 -1.687490 -0.866192 -0.536973 0.000000 0.000000 0.000000 -2.568476 -0.333114 -0.227235 1.896948 -2.359791 -0.769663 -4.099299 4.066356 2.451904 3.777251 -2.538619 0.377511 0.000000 0.000000 0.000000 0.000000 0.000000 0.000000 -2.568476 -0.333114 -0.227235 -2.093869 -2.299847 -1.228383 16.477023 -4.675117 5.701423 -5.253043 4.963222 -7.115362 0.000000 0.000000 0.000000 0.000000 0.000000 0.000000 -0.240967 0.349388 67.766388 -0.000000 0.000000 0.000000 -0.742667 -0.896520 -0.217699 0.000000 0.000000 0.000000 -0.380655 1.562199 67.648905 -1.068604 -0.590374 0.114307 2.857387 0.411183 -3.966682 0.000000 0.000000 0.000000
-56.052727 79.634225 343.408067 -0.335004 -0.345771 -68.052817 -0.195503 0.439958 68.052557 2.658507 0.391187 0.215295 -1.703838 -1.164599 -0.491205 0.000000 0.000000 0.000000 -2.660016 -0.380777 -0.233212 2.642442 -3.430589 -1.257182 -5.538263 5.572440 3.435502 5.014991 -3.655815 -2.258061 0.000000 0.000000 0.000000 0.000000 0.000000 0.000000 -1.704713 -0.208695 -0.238112 -3.226675 -1.939384 -0.237955 16.000319 -6.453671 -2.562147 -4.714507 2.273758 -4.098512 0.000000 0.000000 0.000000 0.000000 0.000000 0.000000 -0.195503 0.439958 68.052557 -0.000000 0.000000 0.000000 -0.785046 -1.127574 -0.362146 0.000000 0.000000 0.000000 -0.395285 1.406300 67.940994 -0.820590 -0.548060 0.110857 2.176439 0.338284 -3.006431 0.000000 0.000000 0.000000
